<svg id="b9d2a024-d846-41ec-a3d5-4b7970aa39ac" data-name="Layer 1" xmlns="http://www.w3.org/2000/svg" width="865.76" height="682.89" viewBox="0 0 865.76 682.89"><path d="M752,564.53l.22.11a11.93,11.93,0,0,1,2.39,19.4c-8.42,7.59-23.46,21.77-35.86,36.84-2.06,2.51-4.93,3-8.15,3.38a7.74,7.74,0,0,1-8.28-8.14Z" fill="#2f2e41"/><path d="M523.57,636.37s-2.88,9.31,4.25,15.2a14.17,14.17,0,0,0,9,3c9.13,0,31.13-2.71,31.13-29.82Z" fill="#2f2e41"/><polygon points="547.01 572.53 535.65 619 561.37 622.29 583.72 574.88 547.01 572.53" fill="#f9b499"/><path d="M692.11,552.75c2.58,1.87,34,27.19,34,27.19L741,557.28l-26.86-30.74Z" fill="#f9b499"/><path d="M539.28,194.14S535,213.77,529.2,219.56l9.11,52s8.71-2.35,13.3-13.41l14.92-31.25L563,199.11S557.19,192.94,539.28,194.14Z" fill="#f9b499"/><path d="M155.41,97.24s-50.4-2.51-39.79,49.55L157.18,588s3.39,47.17,61.38,41.68Z" fill="#2f2e41"/><path d="M155.41,97.24s-50.4-2.51-39.79,49.55L157.18,588s3.39,47.17,61.38,41.68Z" opacity="0.2"/><path d="M130.89,129.66l41,458.07a46.08,46.08,0,0,0,46.63,42L414,626.55a34.82,34.82,0,0,0,34.11-38.06L406,137.93a46.06,46.06,0,0,0-46.11-41.77L160.37,97.24A29.76,29.76,0,0,0,130.89,129.66Z" fill="#2f2e41"/><path d="M217.49,620.65H410.43A29.65,29.65,0,0,0,440,588.41L401,143a41.49,41.49,0,0,0-41.34-37.87H161a23.7,23.7,0,0,0-23.62,25.77l39.59,452.56A40.72,40.72,0,0,0,217.49,620.65Z" fill="#ccc"/><circle cx="234.07" cy="116.05" r="3.29" fill="#2f2e41"/><rect x="248.19" y="112.76" width="48.94" height="6.59" rx="3.29" fill="#2f2e41"/><path d="M295.35,410.64c-6.19,0-13-4.71-13.56-10.87L264.92,213.88c-.64-7,6.55-14.77,13.62-14.77h0c6.22,0,13.06,6.39,13.63,12.59L308.9,397.62c.63,7-6.53,13-13.55,13Z" opacity="0.2"/><path d="M295.21,405.47a9.14,9.14,0,0,1-9.09-8.27L268.86,216.72a10.36,10.36,0,0,1,9.89-11.38h0a10.36,10.36,0,0,1,10.75,9.48l14.82,180.76a9.13,9.13,0,0,1-9.11,9.89Z" fill="#ccc"/><path d="M523.49,382.8h13.94a12.29,12.29,0,0,0,12.26-13.3L538.38,231.55a16.59,16.59,0,0,0-16.54-15.24H508.66Z" fill="#a7a9ac"/><circle cx="305.48" cy="503.01" r="37.3" fill="#2f2e41"/><polygon points="304.66 520.58 288.36 504.17 290.7 501.85 304.05 515.29 319.73 489.78 322.54 491.51 304.66 520.58" fill="#fff"/><path d="M576.57,304.88,562.1,192.56s-9.82-59.42,26.87-59.94h36.17s12.76,1,23.06,5.92a11.4,11.4,0,0,1,6.54,10c.62,23.34,3.62,107,15.24,132.84a6.44,6.44,0,0,1-2.62,8.17C655.37,296.59,623.58,311.39,576.57,304.88Z" fill="#594ec1"/><path d="M536.84,194.3c6-.48,18.95-.76,26.11,4.81,0,0-3.7-42,6.58-57.2,0,0-16.6-2.47-34.8,49.65A2.06,2.06,0,0,0,536.84,194.3Z" fill="#594ec1"/><path d="M536.84,194.3c6-.48,18.95-.76,26.11,4.81,0,0-3.7-42,6.58-57.2,0,0-16.6-2.47-34.8,49.65A2.06,2.06,0,0,0,536.84,194.3Z" opacity="0.2"/><path d="M636.23,202.47s6.48,44.06,11.65,49.11L591,282.48l11.88,17.08,59.49-21.84a22.43,22.43,0,0,0,9.24-6.17c3.17-3.63,6-9.28,4.5-17.36l-3.67-51.72S662.81,187.57,636.23,202.47Z" fill="#f9b499"/><path d="M566.53,311.56s-9.63,115.08,15.78,145.67l104,107.3,34.82-36.71L636.9,410.64l-5.69-107.45s-14.34,4.58-50.52,2.21Z" fill="#2f2e41"/><path d="M566.53,311.56s-9.63,115.08,15.78,145.67l104,107.3,34.82-36.71L636.9,410.64l-5.69-107.45s-14.34,4.58-50.52,2.21Z" opacity="0.2"/><path d="M539,574.41l53.17,13.65s27.3-124.24,47.06-160.95c0,0,41.16-97.24,28.11-137.56,0,0-16.45,12.23-58.86,16.38C608.5,305.93,551.25,488.29,539,574.41Z" fill="#2f2e41"/><path d="M538.09,609s-15.38,18.09-14.69,30.77a9.3,9.3,0,0,0,7.26,8.38c11.45,2.73,41.27,5.53,37.7-40.69C568.36,607.46,549.88,629.47,538.09,609Z" fill="#594ec1"/><path d="M539.66,602.57h18a4.39,4.39,0,0,1,4.38,4.39v6.25s-14.55,13.43-24-4.21Z" fill="#2f2e41"/><path d="M713.88,580.56s-9.89-14.43-5.36-14.75l18.37,14.13S722,583.48,713.88,580.56Z" fill="#2f2e41"/><path d="M713.88,580.56l-11.36,34.67a4.14,4.14,0,0,0,2,4.93c2.94,1.59,7.67,2.78,12.07-2.06,0,0,10.19-13.8,17.37-22.55a61.89,61.89,0,0,1,7.91-7.95c3.09-2.6,7.77-7.17,10.14-12.64a13,13,0,0,0-7.79-17.59,4.61,4.61,0,0,0-3.2-.09l-14.89,22.66S719.06,583.15,713.88,580.56Z" fill="#594ec1"/><path d="M591,112.48v17.6a11.2,11.2,0,0,0,11.8,11.18l11.07-.59a11.17,11.17,0,0,0,10.42-13.2c-1.6-8.48-3.15-21.46-2.91-39.54Z" fill="#f9b499"/><ellipse cx="623.85" cy="79.06" rx="6.06" ry="9.47" fill="#f9b499"/><path d="M573,80l2.17-9.1A32.57,32.57,0,0,0,569.48,73,32.09,32.09,0,0,0,563,77.32S566.27,80,573,80Z" fill="#2f2e41"/><path d="M573,80l2.17-9.1A32.57,32.57,0,0,0,569.48,73,32.09,32.09,0,0,0,563,77.32S566.27,80,573,80Z" opacity="0.2"/><path d="M284.74,382.8H530.52a10.86,10.86,0,0,0,10.83-11.74L529.48,226.28a10.86,10.86,0,0,0-10.84-10l-249.78.41Z" fill="#bcbec0"/><rect x="281.6" y="241.23" width="54.12" height="27.76" rx="3.46" transform="translate(-14.6 18.78) rotate(-3.4)" fill="#fff"/><rect x="371.49" y="240.76" width="70.59" height="4.71" fill="#fff"/><rect x="454.31" y="240.76" width="47.53" height="10.82" rx="3.29" fill="#fff"/><rect x="292.66" y="340.06" width="146" height="6.35" fill="#fff"/><rect x="292.66" y="352.53" width="110" height="6.35" fill="#fff"/><path d="M414.22,225.5l1.89.56a20.64,20.64,0,0,0,22.76-7.9l1.21-1.72L432.75,201a2.1,2.1,0,0,0-2.73-1l-22.67,9.77a2.1,2.1,0,0,0-1,3Z" fill="#f9b499"/><path d="M632.38,205.33s-8.45-60.7,20.06-63.34,23.34,63.34,23.34,63.34S657.18,185,632.38,205.33Z" fill="#594ec1"/><path d="M632.38,205.33s-8.45-60.7,20.06-63.34,23.34,63.34,23.34,63.34S657.18,185,632.38,205.33Z" opacity="0.2"/><path d="M591,119.09v-8.9s22.93-5.53,30.38-22.26l.43,19.08S610.56,123.41,591,119.09Z" fill="#f7aa92"/><path d="M572.41,88.53s-.21,34.53-9.45,53.38l4.62.18s7.1-22.12,7.56-43.2Z" fill="#2f2e41"/><ellipse cx="597.28" cy="84.5" rx="25.09" ry="30.58" fill="#f9b499"/><path d="M563,77.32s8.07-6.83,15.21-6.83c0,0-1.69-5.7,3-9.12,0,0-1.18,5-.24,8.57,0,0,19.18-2.12,26.88,1.41a27.11,27.11,0,0,0,0-8.71s2.29,2.31,2.53,10.22l9.88,2.25,1.23,12.82q0,8.49.36,17.66c.44,9.57,1.25,18.6,2.3,27a72.94,72.94,0,0,1,11.54,1.79c6.21,1.38,13.3,3.72,16.82,7.58,0,0,10.44-2.34,16.86,10.92l5.25-3.21s-22.44-18.12-20.87-24.94c0,0,13.81,17.65,24.87,21.88l3.29-1.64S638.78,109.66,636,72.86c0,0,14.59,43.39,45.88,59.76l1.18-1.27s-29.89-12.24-49.89-71.77c0,0-5.41-24.94-30.82-26.82,0,0-37.88-4.52-43.06,40.1h2.82s-.23-13,6.36-16.34C568.43,56.52,565,60.94,563,77.32Z" fill="#2f2e41"/><path d="M575.14,136.61a147.74,147.74,0,0,0,1.32-35A28.55,28.55,0,0,0,591,114.12l.38,18.84S582,132,575.14,136.61Z" fill="#2f2e41"/><path d="M591,282.48l-30.3-3.37a2,2,0,0,0-2.26,2v6.52l-7.21,2a9.66,9.66,0,0,0-6.62,12.4l2,6a9.66,9.66,0,0,0,12.18,6.09l44.07-14.53Z" fill="#f9b499"/></svg>