<?xml version="1.0" encoding="utf-8"?>
<!-- Generator: Moho 12.5 build 22438 -->
<!DOCTYPE svg PUBLIC "-//W3C//DTD SVG 1.1//EN" "http://www.w3.org/Graphics/SVG/1.1/DTD/svg11.dtd">
<svg version="1.1" id="Frame_0" xmlns="http://www.w3.org/2000/svg" xmlns:xlink="http://www.w3.org/1999/xlink" width="1920px" height="1080px">
<g id="Layer_2">
<g id="Layer_6">
<g id="Layer_3">
<clipPath id="88397edd-788a-4fe0-aeb1-283479ae86b4">
<path fill="#b02019" fill-rule="evenodd" stroke="none" d="M 967.318 220.031 C 967.318 220.031 967.318 220.031 967.318 220.031 C 965.046 218.154 962.320 215.204 959.743 213.773 C 956.802 212.140 952.433 210.667 949.094 210.260 C 946.161 209.903 942.217 210.751 939.269 210.962 C 939.269 210.962 939.269 210.962 939.269 210.962 C 939.064 213.840 939.066 217.712 938.584 220.557 C 937.791 225.242 936.272 231.483 934.300 235.807 C 932.958 238.752 931.369 243.439 928.475 244.888 C 926.590 245.832 923.324 245.681 921.450 244.716 C 919.887 243.911 918.798 241.572 917.851 240.090 C 917.133 238.966 915.796 236.149 915.796 236.149 C 915.796 232.654 915.834 227.993 915.796 224.498 C 915.746 219.922 915.453 209.250 915.453 209.248 C 912.677 208.786 909.012 207.808 906.200 207.706 C 902.665 207.578 897.835 207.787 894.466 208.867 C 892.009 209.655 886.957 213.058 886.956 213.058 C 887.533 217.197 888.576 222.686 888.878 226.854 C 889.359 233.490 890.286 242.530 888.878 249.033 C 888.326 251.581 887.489 255.312 885.559 257.066 C 884.248 258.258 881.739 259.118 879.971 258.987 C 877.924 258.835 875.396 257.203 873.940 255.755 C 872.069 253.896 870.625 250.493 869.861 247.969 C 869.310 246.146 869.259 243.564 869.119 241.665 C 868.729 236.375 868.749 223.991 868.749 223.989 C 867.747 223.396 866.498 222.429 865.411 222.012 C 863.441 221.256 860.597 220.862 858.489 220.776 C 855.621 220.658 851.719 220.930 848.972 221.764 C 845.571 222.797 838.545 227.386 838.544 227.386 C 839.633 232.353 841.266 238.938 842.173 243.940 C 843.937 253.672 846.340 266.711 846.707 276.594 C 847.037 285.448 847.101 297.492 844.894 306.073 C 843.501 311.486 839.471 317.933 837.204 323.041 C 833.813 330.680 828.433 340.569 826.116 348.599 C 823.852 356.447 822.736 367.377 821.965 375.508 C 820.145 394.701 821.229 420.492 820.318 439.750 C 818.664 474.699 819.054 521.813 811.977 556.078 C 806.688 581.684 792.420 613.867 783.873 638.576 C 771.810 673.450 743.795 717.724 743.077 754.619 C 742.549 781.769 753.221 818.881 768.069 841.618 C 780.379 860.469 806.281 878.088 825.233 890.241 C 840.053 899.745 862.076 908.457 878.277 915.347 C 898.999 924.159 927.182 934.614 948.524 941.796 C 964.762 947.260 987.176 952.205 1003.233 958.181 C 1010.452 960.868 1019.810 965.146 1026.757 968.473 C 1035.518 972.668 1046.395 979.950 1055.438 983.495 C 1065.969 987.622 1080.626 991.931 1091.862 993.235 C 1100.299 994.214 1111.839 994.281 1120.167 992.611 C 1126.522 991.336 1134.684 988.049 1140.355 984.910 C 1146.839 981.321 1155.290 975.662 1160.012 969.951 C 1165.878 962.855 1170.914 951.198 1173.391 942.330 C 1176.084 932.689 1175.888 919.096 1176.411 909.099 C 1177.443 889.403 1177.200 863.080 1176.981 843.358 C 1176.609 809.771 1176.467 764.893 1173.286 731.455 C 1171.107 708.545 1166.668 678.092 1161.656 655.631 C 1158.978 643.634 1154.525 627.809 1150.362 616.242 C 1145.964 604.021 1139.599 587.769 1133.009 576.577 C 1126.503 565.531 1115.980 551.839 1107.089 542.603 C 1102.614 537.954 1090.696 528.680 1090.694 528.678 C 1092.379 522.884 1094.019 514.946 1096.309 509.363 C 1098.929 502.975 1103.075 494.600 1107.314 489.150 C 1110.904 484.535 1121.540 475.830 1121.541 475.829 C 1120.433 472.612 1119.400 468.134 1117.849 465.105 C 1115.988 461.471 1112.677 457.058 1109.938 454.029 C 1108.134 452.035 1103.258 448.053 1103.257 448.052 C 1100.989 448.474 1097.953 448.975 1095.698 449.459 C 1088.043 451.099 1077.818 453.341 1070.382 455.788 C 1063.776 457.961 1048.936 464.577 1048.934 464.578 C 1048.478 457.331 1048.221 447.638 1047.412 440.422 C 1045.155 420.284 1041.363 393.382 1035.956 373.853 C 1032.991 363.145 1027.895 349.125 1022.952 339.175 C 1017.030 327.256 1007.068 312.433 999.118 301.760 C 994.168 295.115 987.216 286.435 981.183 280.755 C 978.542 278.270 973.997 276.087 971.650 273.323 C 968.929 270.118 966.317 264.978 965.013 260.981 C 963.949 257.722 963.542 253.097 963.366 249.673 C 963.146 245.393 963.478 239.652 964.025 235.401 C 964.626 230.724 967.318 220.033 967.318 220.031 C 967.318 220.031 967.318 220.031 967.318 220.031 Z"/>
</clipPath>
<path fill="#b02019" fill-rule="evenodd" stroke="none" d="M 967.318 220.031 C 967.318 220.031 967.318 220.031 967.318 220.031 C 965.046 218.154 962.320 215.204 959.743 213.773 C 956.802 212.140 952.433 210.667 949.094 210.260 C 946.161 209.903 942.217 210.751 939.269 210.962 C 939.269 210.962 939.269 210.962 939.269 210.962 C 939.064 213.840 939.066 217.712 938.584 220.557 C 937.791 225.242 936.272 231.483 934.300 235.807 C 932.958 238.752 931.369 243.439 928.475 244.888 C 926.590 245.832 923.324 245.681 921.450 244.716 C 919.887 243.911 918.798 241.572 917.851 240.090 C 917.133 238.966 915.796 236.149 915.796 236.149 C 915.796 232.654 915.834 227.993 915.796 224.498 C 915.746 219.922 915.453 209.250 915.453 209.248 C 912.677 208.786 909.012 207.808 906.200 207.706 C 902.665 207.578 897.835 207.787 894.466 208.867 C 892.009 209.655 886.957 213.058 886.956 213.058 C 887.533 217.197 888.576 222.686 888.878 226.854 C 889.359 233.490 890.286 242.530 888.878 249.033 C 888.326 251.581 887.489 255.312 885.559 257.066 C 884.248 258.258 881.739 259.118 879.971 258.987 C 877.924 258.835 875.396 257.203 873.940 255.755 C 872.069 253.896 870.625 250.493 869.861 247.969 C 869.310 246.146 869.259 243.564 869.119 241.665 C 868.729 236.375 868.749 223.991 868.749 223.989 C 867.747 223.396 866.498 222.429 865.411 222.012 C 863.441 221.256 860.597 220.862 858.489 220.776 C 855.621 220.658 851.719 220.930 848.972 221.764 C 845.571 222.797 838.545 227.386 838.544 227.386 C 839.633 232.353 841.266 238.938 842.173 243.940 C 843.937 253.672 846.340 266.711 846.707 276.594 C 847.037 285.448 847.101 297.492 844.894 306.073 C 843.501 311.486 839.471 317.933 837.204 323.041 C 833.813 330.680 828.433 340.569 826.116 348.599 C 823.852 356.447 822.736 367.377 821.965 375.508 C 820.145 394.701 821.229 420.492 820.318 439.750 C 818.664 474.699 819.054 521.813 811.977 556.078 C 806.688 581.684 792.420 613.867 783.873 638.576 C 771.810 673.450 743.795 717.724 743.077 754.619 C 742.549 781.769 753.221 818.881 768.069 841.618 C 780.379 860.469 806.281 878.088 825.233 890.241 C 840.053 899.745 862.076 908.457 878.277 915.347 C 898.999 924.159 927.182 934.614 948.524 941.796 C 964.762 947.260 987.176 952.205 1003.233 958.181 C 1010.452 960.868 1019.810 965.146 1026.757 968.473 C 1035.518 972.668 1046.395 979.950 1055.438 983.495 C 1065.969 987.622 1080.626 991.931 1091.862 993.235 C 1100.299 994.214 1111.839 994.281 1120.167 992.611 C 1126.522 991.336 1134.684 988.049 1140.355 984.910 C 1146.839 981.321 1155.290 975.662 1160.012 969.951 C 1165.878 962.855 1170.914 951.198 1173.391 942.330 C 1176.084 932.689 1175.888 919.096 1176.411 909.099 C 1177.443 889.403 1177.200 863.080 1176.981 843.358 C 1176.609 809.771 1176.467 764.893 1173.286 731.455 C 1171.107 708.545 1166.668 678.092 1161.656 655.631 C 1158.978 643.634 1154.525 627.809 1150.362 616.242 C 1145.964 604.021 1139.599 587.769 1133.009 576.577 C 1126.503 565.531 1115.980 551.839 1107.089 542.603 C 1102.614 537.954 1090.696 528.680 1090.694 528.678 C 1092.379 522.884 1094.019 514.946 1096.309 509.363 C 1098.929 502.975 1103.075 494.600 1107.314 489.150 C 1110.904 484.535 1121.540 475.830 1121.541 475.829 C 1120.433 472.612 1119.400 468.134 1117.849 465.105 C 1115.988 461.471 1112.677 457.058 1109.938 454.029 C 1108.134 452.035 1103.258 448.053 1103.257 448.052 C 1100.989 448.474 1097.953 448.975 1095.698 449.459 C 1088.043 451.099 1077.818 453.341 1070.382 455.788 C 1063.776 457.961 1048.936 464.577 1048.934 464.578 C 1048.478 457.331 1048.221 447.638 1047.412 440.422 C 1045.155 420.284 1041.363 393.382 1035.956 373.853 C 1032.991 363.145 1027.895 349.125 1022.952 339.175 C 1017.030 327.256 1007.068 312.433 999.118 301.760 C 994.168 295.115 987.216 286.435 981.183 280.755 C 978.542 278.270 973.997 276.087 971.650 273.323 C 968.929 270.118 966.317 264.978 965.013 260.981 C 963.949 257.722 963.542 253.097 963.366 249.673 C 963.146 245.393 963.478 239.652 964.025 235.401 C 964.626 230.724 967.318 220.033 967.318 220.031 C 967.318 220.031 967.318 220.031 967.318 220.031 Z"/>
<path fill="none" stroke="#000000" stroke-width="9" stroke-opacity="0.000000" stroke-linecap="round" stroke-linejoin="round" d="M 886.956 213.058 C 886.956 213.058 886.956 213.058 886.956 213.058 C 886.957 213.058 892.009 209.655 894.466 208.867 C 897.835 207.787 902.665 207.578 906.200 207.706 C 909.012 207.808 912.677 208.786 915.453 209.248 C 915.453 209.248 915.453 209.248 915.453 209.248 C 915.453 209.250 915.746 219.922 915.796 224.498 C 915.834 227.993 915.796 232.654 915.796 236.149 C 915.796 236.149 915.796 236.149 915.796 236.149 C 915.796 236.149 917.133 238.966 917.851 240.090 C 918.798 241.572 919.887 243.911 921.450 244.716 C 923.324 245.681 926.590 245.832 928.475 244.888 C 931.369 243.439 932.958 238.752 934.300 235.807 C 936.272 231.483 937.791 225.242 938.584 220.557 C 939.066 217.712 939.064 213.840 939.269 210.962 C 942.217 210.751 946.161 209.903 949.094 210.260 C 952.433 210.667 956.802 212.140 959.743 213.773 C 962.320 215.204 965.046 218.154 967.318 220.031 C 967.318 220.031 967.318 220.031 967.318 220.031 C 967.318 220.033 964.626 230.724 964.025 235.401 C 963.478 239.652 963.146 245.393 963.366 249.673 C 963.542 253.097 963.949 257.722 965.013 260.981 C 966.317 264.978 968.929 270.118 971.650 273.323 C 973.997 276.087 978.542 278.270 981.183 280.755 C 987.216 286.435 994.168 295.115 999.118 301.760 C 1007.068 312.433 1017.030 327.256 1022.952 339.175 C 1027.895 349.125 1032.991 363.145 1035.956 373.853 C 1041.363 393.382 1045.155 420.284 1047.412 440.422 C 1048.221 447.638 1048.478 457.331 1048.934 464.578 C 1048.934 464.578 1048.934 464.578 1048.934 464.578 C 1048.936 464.577 1063.776 457.961 1070.382 455.788 C 1077.818 453.341 1088.043 451.099 1095.698 449.459 C 1097.953 448.975 1100.989 448.474 1103.257 448.052 C 1103.257 448.052 1103.257 448.052 1103.257 448.052 C 1103.258 448.053 1108.134 452.035 1109.938 454.029 C 1112.677 457.058 1115.988 461.471 1117.849 465.105 C 1119.400 468.134 1120.433 472.612 1121.541 475.829 C 1121.541 475.829 1121.541 475.829 1121.541 475.829 C 1121.540 475.830 1110.904 484.535 1107.314 489.150 C 1103.075 494.600 1098.929 502.975 1096.309 509.363 C 1094.019 514.946 1092.379 522.884 1090.694 528.678 C 1090.694 528.678 1090.694 528.678 1090.694 528.678 C 1090.696 528.680 1102.614 537.954 1107.089 542.603 C 1115.980 551.839 1126.503 565.531 1133.009 576.577 C 1139.599 587.769 1145.964 604.021 1150.362 616.242 C 1154.525 627.809 1158.978 643.634 1161.656 655.631 C 1166.668 678.092 1171.107 708.545 1173.286 731.455 C 1176.467 764.893 1176.609 809.771 1176.981 843.358 C 1177.200 863.080 1177.443 889.403 1176.411 909.099 C 1175.888 919.096 1176.084 932.689 1173.391 942.330 C 1170.914 951.198 1165.878 962.855 1160.012 969.951 C 1155.290 975.662 1146.839 981.321 1140.355 984.910 C 1134.684 988.049 1126.522 991.336 1120.167 992.611 C 1111.839 994.281 1100.299 994.214 1091.862 993.235 C 1080.626 991.931 1065.969 987.622 1055.438 983.495 C 1046.395 979.950 1035.518 972.668 1026.757 968.473 C 1019.810 965.146 1010.452 960.868 1003.233 958.181 C 987.176 952.205 964.762 947.260 948.524 941.796 C 927.182 934.614 898.999 924.159 878.277 915.347 C 862.076 908.457 840.053 899.745 825.233 890.241 C 806.281 878.088 780.379 860.469 768.069 841.618 C 753.221 818.881 742.549 781.769 743.077 754.619 C 743.795 717.724 771.810 673.450 783.873 638.576 C 792.420 613.867 806.688 581.684 811.977 556.078 C 819.054 521.813 818.664 474.699 820.318 439.750 C 821.229 420.492 820.145 394.701 821.965 375.508 C 822.736 367.377 823.852 356.447 826.116 348.599 C 828.433 340.569 833.813 330.680 837.204 323.041 C 839.471 317.933 843.501 311.486 844.894 306.073 C 847.101 297.492 847.037 285.448 846.707 276.594 C 846.340 266.711 843.937 253.672 842.173 243.940 C 841.266 238.938 839.633 232.353 838.544 227.386 C 838.544 227.386 838.544 227.386 838.544 227.386 C 838.545 227.386 845.571 222.797 848.972 221.764 C 851.719 220.930 855.621 220.658 858.489 220.776 C 860.597 220.862 863.441 221.256 865.411 222.012 C 866.498 222.429 867.747 223.396 868.749 223.989 C 868.749 223.989 868.749 223.989 868.749 223.989 C 868.749 223.991 868.729 236.375 869.119 241.665 C 869.259 243.564 869.310 246.146 869.861 247.969 C 870.625 250.493 872.069 253.896 873.940 255.755 C 875.396 257.203 877.924 258.835 879.971 258.987 C 881.739 259.118 884.248 258.258 885.559 257.066 C 887.489 255.312 888.326 251.581 888.878 249.033 C 890.286 242.530 889.359 233.490 888.878 226.854 C 888.576 222.686 887.533 217.197 886.956 213.058 M 939.269 210.962 C 939.269 210.962 939.269 210.962 939.269 210.962 M 967.318 220.031 C 967.318 220.031 967.318 220.031 967.318 220.031 "/>
<path fill="#ca221a" fill-rule="evenodd" stroke="#000000" stroke-width="9" stroke-opacity="0.000000" stroke-linecap="round" stroke-linejoin="round" d="M 997.179 299.820 C 1001.115 308.606 1005.573 320.971 1006.371 330.565 C 1006.886 336.760 1006.787 345.536 1004.152 351.166 C 1001.216 357.439 994.160 364.506 987.988 367.648 C 976.402 373.545 957.798 370.605 944.883 372.085 C 938.028 372.871 928.209 371.804 922.062 374.938 C 914.085 379.005 906.412 389.279 902.094 397.124 C 897.044 406.299 894.492 420.453 892.913 430.806 C 891.034 443.121 893.547 460.011 891.563 472.310 C 890.104 481.356 887.399 493.560 883.127 501.667 C 880.039 507.527 874.919 515.380 869.292 518.875 C 861.147 523.935 847.285 526.972 837.912 524.949 C 819.557 520.988 796.390 503.079 789.095 485.776 C 777.705 458.759 797.968 417.907 803.397 389.094 C 807.276 368.514 812.633 341.017 818.843 321.017 C 823.514 305.976 835.793 287.748 838.061 272.163 C 840.424 255.926 822.554 230.105 833.271 217.680 C 841.071 208.637 863.495 205.389 872.787 212.890 C 880.674 219.258 867.403 249.745 876.978 246.418 C 880.847 245.074 879.991 237.301 880.570 233.247 C 881.713 225.245 875.314 212.445 880.570 206.304 C 887.845 197.804 909.129 195.509 917.690 202.712 C 924.339 208.306 912.939 229.025 921.283 231.450 C 932.407 234.684 929.756 202.396 940.442 197.922 C 949.644 194.070 967.044 197.538 972.773 205.705 C 980.082 216.125 963.750 235.124 966.187 247.616 C 968.236 258.122 978.788 269.180 984.188 278.422 C 984.188 278.422 984.188 278.422 984.188 278.422 C 984.092 278.281 994.108 292.967 997.179 299.820 Z" clip-path="url(#88397edd-788a-4fe0-aeb1-283479ae86b4)"/>
<path fill="#ca221a" fill-rule="evenodd" stroke="#000000" stroke-width="9" stroke-opacity="0.000000" stroke-linecap="round" stroke-linejoin="round" d="M 1011.715 552.816 C 1025.100 559.361 1042.631 569.752 1052.949 580.501 C 1070.221 598.498 1084.199 629.772 1094.771 652.365 C 1105.765 675.858 1117.889 708.502 1124.224 733.654 C 1130.141 757.150 1135.964 789.317 1136.068 813.546 C 1136.157 834.542 1133.094 862.909 1126.676 882.899 C 1123.565 892.589 1118.610 905.955 1111.505 913.242 C 1102.166 922.818 1084.972 931.312 1071.771 933.469 C 1047.608 937.418 1015.585 923.124 991.581 918.298 C 957.034 911.353 911.127 901.328 876.715 893.736 C 855.665 889.092 826.491 886.246 806.639 877.842 C 787.596 869.781 760.280 857.506 748.845 840.276 C 731.474 814.098 731.208 767.843 734.253 736.573 C 738.777 690.105 766.290 631.832 788.144 590.575 C 792.864 581.665 799.238 569.269 806.843 562.649 C 820.988 550.336 845.798 541.847 864.002 537.336 C 888.534 531.257 922.875 533.907 948.106 532.437 C 948.106 532.437 948.106 532.437 948.106 532.437 C 948.104 532.366 993.714 544.013 1011.715 552.816 Z" clip-path="url(#88397edd-788a-4fe0-aeb1-283479ae86b4)"/>
</g>
<g id="Layer_3">
<clipPath id="29c943ca-5a79-4c8c-923d-4c034cd5bb0f">
<path fill="#6556a9" fill-rule="evenodd" stroke="none" d="M 955.450 396.690 C 955.450 396.690 955.450 396.690 955.450 396.690 C 953.886 395.073 952.129 392.518 950.238 391.299 C 946.433 388.847 940.363 386.237 935.862 386.717 C 934.135 386.901 931.928 388.058 930.650 389.233 C 927.850 391.806 926.516 397.085 924.745 400.450 C 924.745 400.450 924.745 400.450 924.745 400.450 C 922.899 409.144 919.778 420.621 918.590 429.429 C 917.250 439.361 917.013 452.764 916.684 462.781 C 916.225 476.781 916.366 509.469 916.366 509.474 C 945.843 508.124 1014.612 504.976 1014.622 504.976 C 1014.509 499.467 1013.692 492.096 1014.247 486.615 C 1014.548 483.643 1015.380 479.713 1016.308 476.873 C 1018.198 471.089 1021.641 463.634 1024.926 458.512 C 1027.715 454.163 1032.268 448.896 1035.987 445.308 C 1039.885 441.548 1045.513 436.869 1050.244 434.233 C 1057.716 430.072 1068.751 426.518 1077.105 424.686 C 1082.242 423.559 1094.544 422.904 1094.545 422.904 C 1096.754 417.815 1100.667 411.349 1101.909 405.942 C 1103.175 400.429 1103.125 392.743 1102.688 387.103 C 1102.293 382.025 1101.424 375.125 1099.418 370.444 C 1097.411 365.762 1089.610 356.588 1089.609 356.586 C 1079.893 357.147 1066.876 357.217 1057.224 358.455 C 1048.035 359.633 1035.920 362.220 1026.938 364.490 C 1017.783 366.803 1005.626 370.252 996.853 373.746 C 988.529 377.062 977.823 382.472 970.074 386.971 C 965.518 389.615 955.451 396.690 955.450 396.690 C 955.450 396.690 955.450 396.690 955.450 396.690 Z"/>
<path fill="#6556a9" fill-rule="evenodd" stroke="none" d="M 718.503 340.109 C 715.667 341.870 712.139 344.601 709.411 346.527 C 709.413 346.531 720.629 375.900 724.565 388.778 C 728.815 402.683 733.989 421.434 736.471 435.761 C 738.835 449.411 740.757 467.875 740.879 481.728 C 741.000 495.471 739.806 513.886 737.314 527.402 C 734.436 543.014 726.728 562.900 722.190 578.113 C 722.203 578.109 812.490 548.843 851.190 536.299 C 845.585 525.623 836.984 511.909 832.508 500.713 C 830.439 495.538 828.017 488.428 827.170 482.919 C 825.201 470.125 826.378 452.657 827.614 439.771 C 829.053 424.777 833.078 405.005 836.782 390.404 C 839.026 381.555 843.223 370.100 845.983 361.398 C 845.981 361.397 836.659 351.575 831.792 348.514 C 826.174 344.980 817.693 341.894 811.251 340.298 C 806.436 339.104 799.749 338.991 794.819 338.430 C 794.819 338.432 794.207 352.263 792.952 358.037 C 792.200 361.499 790.338 365.880 789.217 369.241 C 789.217 369.238 785.438 351.854 783.802 344.406 C 782.633 339.082 781.057 331.988 779.881 326.667 C 771.522 326.902 760.301 326.298 752.019 327.452 C 746.456 328.227 739.078 329.895 733.835 331.908 C 728.966 333.778 722.935 337.358 718.503 340.109 M 779.881 326.667 C 779.881 326.667 779.881 326.667 779.881 326.667 M 851.190 536.299 C 851.190 536.299 851.190 536.299 851.190 536.299 Z"/>
</clipPath>
<path fill="#6556a9" fill-rule="evenodd" stroke="none" d="M 955.450 396.690 C 955.450 396.690 955.450 396.690 955.450 396.690 C 953.886 395.073 952.129 392.518 950.238 391.299 C 946.433 388.847 940.363 386.237 935.862 386.717 C 934.135 386.901 931.928 388.058 930.650 389.233 C 927.850 391.806 926.516 397.085 924.745 400.450 C 924.745 400.450 924.745 400.450 924.745 400.450 C 922.899 409.144 919.778 420.621 918.590 429.429 C 917.250 439.361 917.013 452.764 916.684 462.781 C 916.225 476.781 916.366 509.469 916.366 509.474 C 945.843 508.124 1014.612 504.976 1014.622 504.976 C 1014.509 499.467 1013.692 492.096 1014.247 486.615 C 1014.548 483.643 1015.380 479.713 1016.308 476.873 C 1018.198 471.089 1021.641 463.634 1024.926 458.512 C 1027.715 454.163 1032.268 448.896 1035.987 445.308 C 1039.885 441.548 1045.513 436.869 1050.244 434.233 C 1057.716 430.072 1068.751 426.518 1077.105 424.686 C 1082.242 423.559 1094.544 422.904 1094.545 422.904 C 1096.754 417.815 1100.667 411.349 1101.909 405.942 C 1103.175 400.429 1103.125 392.743 1102.688 387.103 C 1102.293 382.025 1101.424 375.125 1099.418 370.444 C 1097.411 365.762 1089.610 356.588 1089.609 356.586 C 1079.893 357.147 1066.876 357.217 1057.224 358.455 C 1048.035 359.633 1035.920 362.220 1026.938 364.490 C 1017.783 366.803 1005.626 370.252 996.853 373.746 C 988.529 377.062 977.823 382.472 970.074 386.971 C 965.518 389.615 955.451 396.690 955.450 396.690 C 955.450 396.690 955.450 396.690 955.450 396.690 Z"/>
<path fill="none" stroke="#000000" stroke-width="9" stroke-opacity="0.000000" stroke-linecap="round" stroke-linejoin="round" d="M 1089.609 356.586 C 1089.609 356.586 1089.609 356.586 1089.609 356.586 C 1089.610 356.588 1097.411 365.762 1099.418 370.444 C 1101.424 375.125 1102.293 382.025 1102.688 387.103 C 1103.125 392.743 1103.175 400.429 1101.909 405.942 C 1100.667 411.349 1096.754 417.815 1094.545 422.904 C 1094.545 422.904 1094.545 422.904 1094.545 422.904 C 1094.544 422.904 1082.242 423.559 1077.105 424.686 C 1068.751 426.518 1057.716 430.072 1050.244 434.233 C 1045.513 436.869 1039.885 441.548 1035.987 445.308 C 1032.268 448.896 1027.715 454.163 1024.926 458.512 C 1021.641 463.634 1018.198 471.089 1016.308 476.873 C 1015.380 479.713 1014.548 483.643 1014.247 486.615 C 1013.692 492.096 1014.509 499.467 1014.622 504.976 C 1014.622 504.976 1014.622 504.976 1014.622 504.976 C 1014.612 504.976 945.843 508.124 916.366 509.474 C 916.366 509.474 916.366 509.474 916.366 509.474 C 916.366 509.469 916.225 476.781 916.684 462.781 C 917.013 452.764 917.250 439.361 918.590 429.429 C 919.778 420.621 922.899 409.144 924.745 400.450 C 926.516 397.085 927.850 391.806 930.650 389.233 C 931.928 388.058 934.135 386.901 935.862 386.717 C 940.363 386.237 946.433 388.847 950.238 391.299 C 952.129 392.518 953.886 395.073 955.450 396.690 C 955.450 396.690 955.450 396.690 955.450 396.690 C 955.451 396.690 965.518 389.615 970.074 386.971 C 977.823 382.472 988.529 377.062 996.853 373.746 C 1005.626 370.252 1017.783 366.803 1026.938 364.490 C 1035.920 362.220 1048.035 359.633 1057.224 358.455 C 1066.876 357.217 1079.893 357.147 1089.609 356.586 M 924.745 400.450 C 924.745 400.450 924.745 400.450 924.745 400.450 M 955.450 396.690 C 955.450 396.690 955.450 396.690 955.450 396.690 "/>
<path fill="#6556a9" fill-rule="evenodd" stroke="none" d="M 718.503 340.109 C 715.667 341.870 712.139 344.601 709.411 346.527 C 709.413 346.531 720.629 375.900 724.565 388.778 C 728.815 402.683 733.989 421.434 736.471 435.761 C 738.835 449.411 740.757 467.875 740.879 481.728 C 741.000 495.471 739.806 513.886 737.314 527.402 C 734.436 543.014 726.728 562.900 722.190 578.113 C 722.203 578.109 812.490 548.843 851.190 536.299 C 845.585 525.623 836.984 511.909 832.508 500.713 C 830.439 495.538 828.017 488.428 827.170 482.919 C 825.201 470.125 826.378 452.657 827.614 439.771 C 829.053 424.777 833.078 405.005 836.782 390.404 C 839.026 381.555 843.223 370.100 845.983 361.398 C 845.981 361.397 836.659 351.575 831.792 348.514 C 826.174 344.980 817.693 341.894 811.251 340.298 C 806.436 339.104 799.749 338.991 794.819 338.430 C 794.819 338.432 794.207 352.263 792.952 358.037 C 792.200 361.499 790.338 365.880 789.217 369.241 C 789.217 369.238 785.438 351.854 783.802 344.406 C 782.633 339.082 781.057 331.988 779.881 326.667 C 771.522 326.902 760.301 326.298 752.019 327.452 C 746.456 328.227 739.078 329.895 733.835 331.908 C 728.966 333.778 722.935 337.358 718.503 340.109 M 779.881 326.667 C 779.881 326.667 779.881 326.667 779.881 326.667 M 851.190 536.299 C 851.190 536.299 851.190 536.299 851.190 536.299 Z"/>
<path fill="none" stroke="#000000" stroke-width="9" stroke-opacity="0.000000" stroke-linecap="round" stroke-linejoin="round" d="M 709.411 346.527 C 709.411 346.527 709.411 346.527 709.411 346.527 C 712.139 344.601 715.667 341.870 718.503 340.109 C 722.935 337.358 728.966 333.778 733.835 331.908 C 739.078 329.895 746.456 328.227 752.019 327.452 C 760.301 326.298 771.522 326.902 779.881 326.667 C 779.881 326.667 779.881 326.667 779.881 326.667 C 781.057 331.988 782.633 339.082 783.802 344.406 C 785.438 351.854 789.217 369.238 789.217 369.241 C 789.217 369.241 789.217 369.241 789.217 369.241 C 790.338 365.880 792.200 361.499 792.952 358.037 C 794.207 352.263 794.819 338.432 794.819 338.430 C 794.819 338.430 794.819 338.430 794.819 338.430 C 799.749 338.991 806.436 339.104 811.251 340.298 C 817.693 341.894 826.174 344.980 831.792 348.514 C 836.659 351.575 845.981 361.397 845.983 361.398 C 845.983 361.398 845.983 361.398 845.983 361.398 C 843.223 370.100 839.026 381.555 836.782 390.404 C 833.078 405.005 829.053 424.777 827.614 439.771 C 826.378 452.657 825.201 470.125 827.170 482.919 C 828.017 488.428 830.439 495.538 832.508 500.713 C 836.984 511.909 845.585 525.623 851.190 536.299 C 851.190 536.299 851.190 536.299 851.190 536.299 C 812.490 548.843 722.203 578.109 722.190 578.113 C 722.190 578.113 722.190 578.113 722.190 578.113 C 726.728 562.900 734.436 543.014 737.314 527.402 C 739.806 513.886 741.000 495.471 740.879 481.728 C 740.757 467.875 738.835 449.411 736.471 435.761 C 733.989 421.434 728.815 402.683 724.565 388.778 C 720.629 375.900 709.413 346.531 709.411 346.527 "/>
<path fill="#52429b" fill-rule="evenodd" stroke="none" d="M 1108.349 394.547 C 1108.349 394.547 1108.349 394.547 1108.349 394.547 C 1094.295 396.967 1075.047 398.154 1061.500 402.612 C 1050.706 406.164 1036.750 412.734 1027.538 419.387 C 1018.818 425.686 1008.942 436.398 1002.312 444.868 C 995.144 454.025 989.597 469.036 982.182 477.994 C 978.837 482.035 974.261 487.899 969.441 489.970 C 965.568 491.634 959.528 491.962 955.426 490.990 C 949.972 489.697 943.191 485.391 939.563 481.119 C 935.221 476.008 932.588 466.945 931.221 460.379 C 929.209 450.710 929.372 437.240 930.770 427.464 C 932.173 417.659 934.887 404.088 940.464 395.902 C 942.847 392.405 947.899 389.403 951.086 386.618 C 951.086 386.618 951.086 386.618 951.086 386.618 C 948.086 384.618 941.086 379.952 941.085 379.951 C 936.210 383.576 928.324 387.061 924.835 392.035 C 917.661 402.260 916.679 420.098 914.834 432.453 C 911.195 456.829 912.501 489.913 911.501 514.539 C 911.501 514.539 911.501 514.539 911.501 514.539 C 943.377 513.539 1017.744 511.206 1017.755 511.206 C 1018.551 502.936 1018.319 491.680 1020.410 483.639 C 1022.371 476.099 1025.993 465.977 1030.779 459.829 C 1037.658 450.994 1050.703 442.538 1060.732 437.557 C 1072.000 431.961 1101.049 426.038 1101.053 426.037 C 1103.242 416.590 1108.349 394.550 1108.349 394.547 C 1108.349 394.547 1108.349 394.547 1108.349 394.547 Z" clip-path="url(#29c943ca-5a79-4c8c-923d-4c034cd5bb0f)"/>
<path fill="none" stroke="#000000" stroke-width="9" stroke-opacity="0.000000" stroke-linecap="round" stroke-linejoin="round" d="M 1101.053 426.037 C 1101.053 426.037 1101.053 426.037 1101.053 426.037 C 1101.049 426.038 1072.000 431.961 1060.732 437.557 C 1050.703 442.538 1037.658 450.994 1030.779 459.829 C 1025.993 465.977 1022.371 476.099 1020.410 483.639 C 1018.319 491.680 1018.551 502.936 1017.755 511.206 C 1017.755 511.206 1017.755 511.206 1017.755 511.206 C 1017.744 511.206 943.377 513.539 911.501 514.539 C 912.501 489.913 911.195 456.829 914.834 432.453 C 916.679 420.098 917.661 402.260 924.835 392.035 C 928.324 387.061 936.210 383.576 941.085 379.951 C 941.085 379.951 941.085 379.951 941.085 379.951 C 941.086 379.952 948.086 384.618 951.086 386.618 C 947.899 389.403 942.847 392.405 940.464 395.902 C 934.887 404.088 932.173 417.659 930.770 427.464 C 929.372 437.240 929.209 450.710 931.221 460.379 C 932.588 466.945 935.221 476.008 939.563 481.119 C 943.191 485.391 949.972 489.697 955.426 490.990 C 959.528 491.962 965.568 491.634 969.441 489.970 C 974.261 487.899 978.837 482.035 982.182 477.994 C 989.597 469.036 995.144 454.025 1002.312 444.868 C 1008.942 436.398 1018.818 425.686 1027.538 419.387 C 1036.750 412.734 1050.706 406.164 1061.500 402.612 C 1075.047 398.154 1094.295 396.967 1108.349 394.547 C 1108.349 394.547 1108.349 394.547 1108.349 394.547 C 1108.349 394.550 1103.242 416.590 1101.053 426.037 M 951.086 386.618 C 951.086 386.618 951.086 386.618 951.086 386.618 M 911.501 514.539 C 911.501 514.539 911.501 514.539 911.501 514.539 M 1108.349 394.547 C 1108.349 394.547 1108.349 394.547 1108.349 394.547 " clip-path="url(#29c943ca-5a79-4c8c-923d-4c034cd5bb0f)"/>
<path fill="#52429b" fill-rule="evenodd" stroke="none" d="M 791.769 533.016 C 809.543 530.383 833.241 526.872 851.014 524.239 C 851.013 524.235 836.336 501.574 834.338 490.447 C 830.199 467.393 842.204 436.362 845.748 413.209 C 848.307 396.494 851.910 374.238 854.550 357.536 C 854.548 357.535 839.794 349.434 833.469 345.962 C 828.778 355.973 821.709 368.978 817.831 379.332 C 812.427 393.763 806.942 413.674 803.981 428.798 C 801.531 441.310 800.206 458.313 799.034 471.009 C 798.048 481.691 797.949 496.042 796.597 506.684 C 795.585 514.651 793.218 525.116 791.769 533.016 C 791.769 533.016 791.769 533.016 791.769 533.016 M 833.469 345.962 C 833.469 345.962 833.469 345.962 833.469 345.962 Z" clip-path="url(#29c943ca-5a79-4c8c-923d-4c034cd5bb0f)"/>
<path fill="none" stroke="#000000" stroke-width="9" stroke-opacity="0.000000" stroke-linecap="round" stroke-linejoin="round" d="M 851.014 524.239 C 851.014 524.239 851.014 524.239 851.014 524.239 C 833.241 526.872 809.543 530.383 791.769 533.016 C 791.769 533.016 791.769 533.016 791.769 533.016 C 793.218 525.116 795.585 514.651 796.597 506.684 C 797.949 496.042 798.048 481.691 799.034 471.009 C 800.206 458.313 801.531 441.310 803.981 428.798 C 806.942 413.674 812.427 393.763 817.831 379.332 C 821.709 368.978 828.778 355.973 833.469 345.962 C 833.469 345.962 833.469 345.962 833.469 345.962 C 839.794 349.434 854.548 357.535 854.550 357.536 C 854.550 357.536 854.550 357.536 854.550 357.536 C 851.910 374.238 848.307 396.494 845.748 413.209 C 842.204 436.362 830.199 467.393 834.338 490.447 C 836.336 501.574 851.013 524.235 851.014 524.239 " clip-path="url(#29c943ca-5a79-4c8c-923d-4c034cd5bb0f)"/>
<path fill="#52429b" fill-rule="evenodd" stroke="none" d="M 782.123 387.781 C 782.123 387.781 782.123 387.781 782.123 387.781 C 783.909 383.628 786.678 378.237 788.076 373.938 C 789.158 370.614 789.917 365.992 790.706 362.587 C 790.706 362.587 790.706 362.587 790.706 362.587 C 789.502 358.641 787.678 353.441 786.692 349.436 C 784.796 341.731 781.986 323.413 781.985 323.410 C 775.258 323.410 759.562 323.410 759.560 323.410 C 761.387 331.010 763.238 341.308 765.650 348.743 C 769.573 360.834 782.122 387.777 782.123 387.781 C 782.123 387.781 782.123 387.781 782.123 387.781 Z" clip-path="url(#29c943ca-5a79-4c8c-923d-4c034cd5bb0f)"/>
<path fill="none" stroke="#000000" stroke-width="9" stroke-opacity="0.000000" stroke-linecap="round" stroke-linejoin="round" d="M 781.985 323.410 C 781.985 323.410 781.985 323.410 781.985 323.410 C 781.986 323.413 784.796 341.731 786.692 349.436 C 787.678 353.441 789.502 358.641 790.706 362.587 C 789.917 365.992 789.158 370.614 788.076 373.938 C 786.678 378.237 783.909 383.628 782.123 387.781 C 782.123 387.781 782.123 387.781 782.123 387.781 C 782.122 387.777 769.573 360.834 765.650 348.743 C 763.238 341.308 761.387 331.010 759.560 323.410 C 759.560 323.410 759.560 323.410 759.560 323.410 C 759.562 323.410 775.258 323.410 781.985 323.410 M 790.706 362.587 C 790.706 362.587 790.706 362.587 790.706 362.587 M 782.123 387.781 C 782.123 387.781 782.123 387.781 782.123 387.781 " clip-path="url(#29c943ca-5a79-4c8c-923d-4c034cd5bb0f)"/>
</g>
<g id="Layer_4">
<clipPath id="cb6882c3-d270-4d5c-9b59-bfb958b57c83">
<path fill="#e27014" fill-rule="evenodd" stroke="none" d="M 1005.898 502.251 C 1011.054 502.545 1017.925 503.013 1023.080 503.339 C 1023.078 503.341 1012.664 519.878 1008.725 527.263 C 1004.756 534.706 998.647 544.488 996.763 552.710 C 994.693 561.741 996.123 574.338 996.546 583.594 C 996.837 589.963 999.025 598.392 998.553 604.750 C 998.125 610.527 995.886 618.039 993.974 623.506 C 992.021 629.088 986.930 635.609 985.686 641.390 C 984.694 645.995 984.385 652.565 985.686 657.093 C 987.319 662.779 992.939 668.849 996.372 673.668 C 999.546 678.122 1004.800 683.330 1007.620 688.017 C 1010.449 692.720 1013.398 699.500 1015.050 704.734 C 1017.115 711.279 1016.978 720.759 1019.322 727.209 C 1022.490 735.927 1030.691 745.671 1034.664 754.052 C 1039.211 763.645 1044.271 776.933 1047.261 787.119 C 1049.360 794.270 1051.948 803.970 1052.498 811.402 C 1053.188 820.744 1051.460 833.255 1050.273 842.547 C 1049.256 850.512 1046.476 860.909 1045.453 868.872 C 1044.287 877.944 1043.866 890.153 1043.228 899.277 C 1042.983 902.786 1043.261 907.554 1042.442 910.975 C 1041.257 915.929 1037.242 921.691 1035.589 926.509 C 1034.235 930.455 1032.261 935.815 1032.163 939.986 C 1032.016 946.236 1034.318 954.550 1036.731 960.317 C 1038.896 965.491 1042.929 972.005 1046.783 976.079 C 1049.781 979.249 1054.992 982.098 1058.510 984.678 C 1058.507 984.678 1043.870 981.690 1037.873 979.505 C 1031.279 977.104 1022.300 973.658 1016.858 969.226 C 1012.849 965.962 1008.095 960.526 1006.121 955.748 C 1004.696 952.299 1004.354 947.141 1004.522 943.413 C 1004.667 940.190 1005.833 935.980 1006.806 932.905 C 1008.519 927.491 1013.102 921.084 1014.344 915.544 C 1016.683 905.112 1015.912 890.515 1014.573 879.908 C 1013.409 870.684 1008.971 858.948 1006.790 849.911 C 1005.595 844.956 1003.690 838.392 1003.055 833.335 C 1001.686 822.423 1002.468 807.677 1002.588 796.680 C 1002.664 789.805 1003.111 780.646 1003.335 773.774 C 1003.334 773.772 997.553 763.965 994.507 760.173 C 992.826 758.081 989.564 756.098 988.302 753.730 C 986.553 750.447 986.108 745.276 985.917 741.561 C 985.658 736.532 986.684 729.812 987.587 724.858 C 987.852 723.406 988.422 721.518 988.780 720.086 C 988.780 720.085 988.674 711.765 987.411 708.501 C 985.905 704.610 981.848 700.502 979.217 697.264 C 975.987 693.289 970.613 688.865 967.746 684.622 C 964.087 679.208 960.494 671.140 958.381 664.957 C 956.575 659.672 955.110 652.314 954.359 646.779 C 953.385 639.601 953.084 629.903 953.210 622.661 C 953.330 615.811 954.397 606.720 955.075 599.903 C 955.574 594.889 957.209 588.254 957.012 583.219 C 956.872 579.663 956.679 574.607 954.846 571.557 C 952.327 567.367 946.269 563.815 941.850 561.726 C 937.619 559.727 931.362 558.273 926.687 558.060 C 921.384 557.819 913.870 558.216 909.193 560.726 C 904.328 563.337 899.856 569.750 896.863 574.389 C 892.771 580.731 889.686 590.483 887.033 597.549 C 883.655 606.542 881.070 619.241 877.112 627.994 C 874.410 633.969 871.129 642.652 866.129 646.896 C 861.007 651.243 851.576 652.750 845.184 654.814 C 841.327 656.059 835.836 656.692 832.157 658.390 C 826.462 661.017 819.893 666.420 815.042 670.395 C 807.643 676.459 798.323 685.277 792.103 692.545 C 787.268 698.194 781.024 706.075 777.751 712.751 C 773.798 720.815 772.303 733.009 769.253 741.456 C 767.561 746.142 764.307 752.010 762.803 756.759 C 761.148 761.983 758.679 769.139 758.943 774.612 C 759.115 778.181 760.639 782.880 762.321 786.032 C 764.930 790.921 772.154 794.950 774.383 800.024 C 776.084 803.895 776.416 809.768 776.246 813.993 C 776.141 816.598 774.377 819.912 774.541 822.514 C 774.996 829.715 779.348 838.917 783.442 844.859 C 788.142 851.681 797.820 857.782 803.893 863.417 C 808.740 867.914 815.042 874.080 819.888 878.578 C 823.101 881.560 827.413 885.507 830.693 888.416 C 835.051 892.281 840.985 897.293 845.395 901.098 C 845.392 901.096 823.244 892.090 814.404 886.964 C 800.867 879.114 783.478 867.122 772.311 856.160 C 765.335 849.312 757.133 838.952 752.253 830.483 C 744.491 817.014 737.496 797.192 733.565 782.152 C 731.339 773.634 729.510 761.946 729.054 753.154 C 728.644 745.229 729.160 734.580 730.343 726.734 C 731.472 719.252 733.956 709.394 736.577 702.296 C 739.278 694.982 743.878 685.559 748.075 678.989 C 753.320 670.780 761.821 660.826 768.586 653.817 C 777.077 645.020 789.808 634.732 799.352 627.091 C 809.858 618.680 824.828 608.724 835.489 600.510 C 843.580 594.276 854.615 586.206 862.016 579.167 C 866.662 574.748 872.954 568.752 876.346 563.312 C 879.631 558.045 883.090 550.241 884.047 544.108 C 884.750 539.602 884.035 533.410 883.165 528.933 C 882.604 526.044 881.403 522.258 880.130 519.604 C 879.339 517.958 877.836 516.013 876.852 514.474 C 880.784 513.057 885.931 510.871 889.957 509.749 C 897.794 507.564 908.537 505.766 916.603 504.693 C 933.981 502.381 957.372 500.801 974.903 500.703 C 984.213 500.651 996.603 501.721 1005.898 502.251 M 876.852 514.474 C 876.852 514.474 876.852 514.474 876.852 514.474 Z"/>
</clipPath>
<path fill="#e27014" fill-rule="evenodd" stroke="none" d="M 1005.898 502.251 C 1011.054 502.545 1017.925 503.013 1023.080 503.339 C 1023.078 503.341 1012.664 519.878 1008.725 527.263 C 1004.756 534.706 998.647 544.488 996.763 552.710 C 994.693 561.741 996.123 574.338 996.546 583.594 C 996.837 589.963 999.025 598.392 998.553 604.750 C 998.125 610.527 995.886 618.039 993.974 623.506 C 992.021 629.088 986.930 635.609 985.686 641.390 C 984.694 645.995 984.385 652.565 985.686 657.093 C 987.319 662.779 992.939 668.849 996.372 673.668 C 999.546 678.122 1004.800 683.330 1007.620 688.017 C 1010.449 692.720 1013.398 699.500 1015.050 704.734 C 1017.115 711.279 1016.978 720.759 1019.322 727.209 C 1022.490 735.927 1030.691 745.671 1034.664 754.052 C 1039.211 763.645 1044.271 776.933 1047.261 787.119 C 1049.360 794.270 1051.948 803.970 1052.498 811.402 C 1053.188 820.744 1051.460 833.255 1050.273 842.547 C 1049.256 850.512 1046.476 860.909 1045.453 868.872 C 1044.287 877.944 1043.866 890.153 1043.228 899.277 C 1042.983 902.786 1043.261 907.554 1042.442 910.975 C 1041.257 915.929 1037.242 921.691 1035.589 926.509 C 1034.235 930.455 1032.261 935.815 1032.163 939.986 C 1032.016 946.236 1034.318 954.550 1036.731 960.317 C 1038.896 965.491 1042.929 972.005 1046.783 976.079 C 1049.781 979.249 1054.992 982.098 1058.510 984.678 C 1058.507 984.678 1043.870 981.690 1037.873 979.505 C 1031.279 977.104 1022.300 973.658 1016.858 969.226 C 1012.849 965.962 1008.095 960.526 1006.121 955.748 C 1004.696 952.299 1004.354 947.141 1004.522 943.413 C 1004.667 940.190 1005.833 935.980 1006.806 932.905 C 1008.519 927.491 1013.102 921.084 1014.344 915.544 C 1016.683 905.112 1015.912 890.515 1014.573 879.908 C 1013.409 870.684 1008.971 858.948 1006.790 849.911 C 1005.595 844.956 1003.690 838.392 1003.055 833.335 C 1001.686 822.423 1002.468 807.677 1002.588 796.680 C 1002.664 789.805 1003.111 780.646 1003.335 773.774 C 1003.334 773.772 997.553 763.965 994.507 760.173 C 992.826 758.081 989.564 756.098 988.302 753.730 C 986.553 750.447 986.108 745.276 985.917 741.561 C 985.658 736.532 986.684 729.812 987.587 724.858 C 987.852 723.406 988.422 721.518 988.780 720.086 C 988.780 720.085 988.674 711.765 987.411 708.501 C 985.905 704.610 981.848 700.502 979.217 697.264 C 975.987 693.289 970.613 688.865 967.746 684.622 C 964.087 679.208 960.494 671.140 958.381 664.957 C 956.575 659.672 955.110 652.314 954.359 646.779 C 953.385 639.601 953.084 629.903 953.210 622.661 C 953.330 615.811 954.397 606.720 955.075 599.903 C 955.574 594.889 957.209 588.254 957.012 583.219 C 956.872 579.663 956.679 574.607 954.846 571.557 C 952.327 567.367 946.269 563.815 941.850 561.726 C 937.619 559.727 931.362 558.273 926.687 558.060 C 921.384 557.819 913.870 558.216 909.193 560.726 C 904.328 563.337 899.856 569.750 896.863 574.389 C 892.771 580.731 889.686 590.483 887.033 597.549 C 883.655 606.542 881.070 619.241 877.112 627.994 C 874.410 633.969 871.129 642.652 866.129 646.896 C 861.007 651.243 851.576 652.750 845.184 654.814 C 841.327 656.059 835.836 656.692 832.157 658.390 C 826.462 661.017 819.893 666.420 815.042 670.395 C 807.643 676.459 798.323 685.277 792.103 692.545 C 787.268 698.194 781.024 706.075 777.751 712.751 C 773.798 720.815 772.303 733.009 769.253 741.456 C 767.561 746.142 764.307 752.010 762.803 756.759 C 761.148 761.983 758.679 769.139 758.943 774.612 C 759.115 778.181 760.639 782.880 762.321 786.032 C 764.930 790.921 772.154 794.950 774.383 800.024 C 776.084 803.895 776.416 809.768 776.246 813.993 C 776.141 816.598 774.377 819.912 774.541 822.514 C 774.996 829.715 779.348 838.917 783.442 844.859 C 788.142 851.681 797.820 857.782 803.893 863.417 C 808.740 867.914 815.042 874.080 819.888 878.578 C 823.101 881.560 827.413 885.507 830.693 888.416 C 835.051 892.281 840.985 897.293 845.395 901.098 C 845.392 901.096 823.244 892.090 814.404 886.964 C 800.867 879.114 783.478 867.122 772.311 856.160 C 765.335 849.312 757.133 838.952 752.253 830.483 C 744.491 817.014 737.496 797.192 733.565 782.152 C 731.339 773.634 729.510 761.946 729.054 753.154 C 728.644 745.229 729.160 734.580 730.343 726.734 C 731.472 719.252 733.956 709.394 736.577 702.296 C 739.278 694.982 743.878 685.559 748.075 678.989 C 753.320 670.780 761.821 660.826 768.586 653.817 C 777.077 645.020 789.808 634.732 799.352 627.091 C 809.858 618.680 824.828 608.724 835.489 600.510 C 843.580 594.276 854.615 586.206 862.016 579.167 C 866.662 574.748 872.954 568.752 876.346 563.312 C 879.631 558.045 883.090 550.241 884.047 544.108 C 884.750 539.602 884.035 533.410 883.165 528.933 C 882.604 526.044 881.403 522.258 880.130 519.604 C 879.339 517.958 877.836 516.013 876.852 514.474 C 880.784 513.057 885.931 510.871 889.957 509.749 C 897.794 507.564 908.537 505.766 916.603 504.693 C 933.981 502.381 957.372 500.801 974.903 500.703 C 984.213 500.651 996.603 501.721 1005.898 502.251 M 876.852 514.474 C 876.852 514.474 876.852 514.474 876.852 514.474 Z"/>
<path fill="none" stroke="#000000" stroke-width="6" stroke-opacity="0.000000" stroke-linecap="round" stroke-linejoin="round" d="M 1023.080 503.339 C 1023.080 503.339 1023.080 503.339 1023.080 503.339 C 1017.925 503.013 1011.054 502.545 1005.898 502.251 C 996.603 501.721 984.213 500.651 974.903 500.703 C 957.372 500.801 933.981 502.381 916.603 504.693 C 908.537 505.766 897.794 507.564 889.957 509.749 C 885.931 510.871 880.784 513.057 876.852 514.474 C 876.852 514.474 876.852 514.474 876.852 514.474 C 877.836 516.013 879.339 517.958 880.130 519.604 C 881.403 522.258 882.604 526.044 883.165 528.933 C 884.035 533.410 884.750 539.602 884.047 544.108 C 883.090 550.241 879.631 558.045 876.346 563.312 C 872.954 568.752 866.662 574.748 862.016 579.167 C 854.615 586.206 843.580 594.276 835.489 600.510 C 824.828 608.724 809.858 618.680 799.352 627.091 C 789.808 634.732 777.077 645.020 768.586 653.817 C 761.821 660.826 753.320 670.780 748.075 678.989 C 743.878 685.559 739.278 694.982 736.577 702.296 C 733.956 709.394 731.472 719.252 730.343 726.734 C 729.160 734.580 728.644 745.229 729.054 753.154 C 729.510 761.946 731.339 773.634 733.565 782.152 C 737.496 797.192 744.491 817.014 752.253 830.483 C 757.133 838.952 765.335 849.312 772.311 856.160 C 783.478 867.122 800.867 879.114 814.404 886.964 C 823.244 892.090 845.392 901.096 845.395 901.098 C 845.395 901.098 845.395 901.098 845.395 901.098 C 840.985 897.293 835.051 892.281 830.693 888.416 C 827.413 885.507 823.101 881.560 819.888 878.578 C 815.042 874.080 808.740 867.914 803.893 863.417 C 797.820 857.782 788.142 851.681 783.442 844.859 C 779.348 838.917 774.996 829.715 774.541 822.514 C 774.377 819.912 776.141 816.598 776.246 813.993 C 776.416 809.768 776.084 803.895 774.383 800.024 C 772.154 794.950 764.930 790.921 762.321 786.032 C 760.639 782.880 759.115 778.181 758.943 774.612 C 758.679 769.139 761.148 761.983 762.803 756.759 C 764.307 752.010 767.561 746.142 769.253 741.456 C 772.303 733.009 773.798 720.815 777.751 712.751 C 781.024 706.075 787.268 698.194 792.103 692.545 C 798.323 685.277 807.643 676.459 815.042 670.395 C 819.893 666.420 826.462 661.017 832.157 658.390 C 835.836 656.692 841.327 656.059 845.184 654.814 C 851.576 652.750 861.007 651.243 866.129 646.896 C 871.129 642.652 874.410 633.969 877.112 627.994 C 881.070 619.241 883.655 606.542 887.033 597.549 C 889.686 590.483 892.771 580.731 896.863 574.389 C 899.856 569.750 904.328 563.337 909.193 560.726 C 913.870 558.216 921.384 557.819 926.687 558.060 C 931.362 558.273 937.619 559.727 941.850 561.726 C 946.269 563.815 952.327 567.367 954.846 571.557 C 956.679 574.607 956.872 579.663 957.012 583.219 C 957.209 588.254 955.574 594.889 955.075 599.903 C 954.397 606.720 953.330 615.811 953.210 622.661 C 953.084 629.903 953.385 639.601 954.359 646.779 C 955.110 652.314 956.575 659.672 958.381 664.957 C 960.494 671.140 964.087 679.208 967.746 684.622 C 970.613 688.865 975.987 693.289 979.217 697.264 C 981.848 700.502 985.905 704.610 987.411 708.501 C 988.674 711.765 988.780 720.085 988.780 720.086 C 988.780 720.086 988.780 720.086 988.780 720.086 C 988.422 721.518 987.852 723.406 987.587 724.858 C 986.684 729.812 985.658 736.532 985.917 741.561 C 986.108 745.276 986.553 750.447 988.302 753.730 C 989.564 756.098 992.826 758.081 994.507 760.173 C 997.553 763.965 1003.334 773.772 1003.335 773.774 C 1003.335 773.774 1003.335 773.774 1003.335 773.774 C 1003.111 780.646 1002.664 789.805 1002.588 796.680 C 1002.468 807.677 1001.686 822.423 1003.055 833.335 C 1003.690 838.392 1005.595 844.956 1006.790 849.911 C 1008.971 858.948 1013.409 870.684 1014.573 879.908 C 1015.912 890.515 1016.683 905.112 1014.344 915.544 C 1013.102 921.084 1008.519 927.491 1006.806 932.905 C 1005.833 935.980 1004.667 940.190 1004.522 943.413 C 1004.354 947.141 1004.696 952.299 1006.121 955.748 C 1008.095 960.526 1012.849 965.962 1016.858 969.226 C 1022.300 973.658 1031.279 977.104 1037.873 979.505 C 1043.870 981.690 1058.507 984.678 1058.510 984.678 C 1058.510 984.678 1058.510 984.678 1058.510 984.678 C 1054.992 982.098 1049.781 979.249 1046.783 976.079 C 1042.929 972.005 1038.896 965.491 1036.731 960.317 C 1034.318 954.550 1032.016 946.236 1032.163 939.986 C 1032.261 935.815 1034.235 930.455 1035.589 926.509 C 1037.242 921.691 1041.257 915.929 1042.442 910.975 C 1043.261 907.554 1042.983 902.786 1043.228 899.277 C 1043.866 890.153 1044.287 877.944 1045.453 868.872 C 1046.476 860.909 1049.256 850.512 1050.273 842.547 C 1051.460 833.255 1053.188 820.744 1052.498 811.402 C 1051.948 803.970 1049.360 794.270 1047.261 787.119 C 1044.271 776.933 1039.211 763.645 1034.664 754.052 C 1030.691 745.671 1022.490 735.927 1019.322 727.209 C 1016.978 720.759 1017.115 711.279 1015.050 704.734 C 1013.398 699.500 1010.449 692.720 1007.620 688.017 C 1004.800 683.330 999.546 678.122 996.372 673.668 C 992.939 668.849 987.319 662.779 985.686 657.093 C 984.385 652.565 984.694 645.995 985.686 641.390 C 986.930 635.609 992.021 629.088 993.974 623.506 C 995.886 618.039 998.125 610.527 998.553 604.750 C 999.025 598.392 996.837 589.963 996.546 583.594 C 996.123 574.338 994.693 561.741 996.763 552.710 C 998.647 544.488 1004.756 534.706 1008.725 527.263 C 1012.664 519.878 1023.078 503.341 1023.080 503.339 "/>
<path fill="#f2a33c" fill-rule="evenodd" stroke="none" d="M 897.249 525.936 C 895.013 526.895 892.094 528.315 889.884 529.335 C 889.884 529.337 890.419 542.785 889.034 548.313 C 887.168 555.759 882.141 564.991 877.705 571.256 C 868.158 584.735 850.906 599.044 838.248 609.657 C 825.587 620.273 806.162 631.160 793.539 641.822 C 785.302 648.779 774.544 658.494 767.806 666.911 C 760.660 675.839 752.788 689.076 747.864 699.398 C 743.444 708.665 739.455 721.843 736.390 731.642 C 733.141 742.031 729.763 756.163 726.922 766.672 C 726.924 766.678 731.387 807.171 739.704 822.058 C 741.274 824.869 744.674 827.691 746.805 830.105 C 746.806 830.106 752.768 837.617 756.466 837.780 C 758.333 837.862 760.833 836.315 761.945 834.812 C 763.962 832.088 763.852 827.002 763.543 823.626 C 762.890 816.482 757.147 808.128 755.096 801.254 C 753.591 796.206 751.787 789.368 751.215 784.132 C 749.966 772.691 750.092 757.106 752.129 745.779 C 754.232 734.083 760.368 719.255 765.077 708.345 C 768.412 700.619 773.061 690.271 777.956 683.427 C 782.484 677.097 789.693 669.396 795.875 664.668 C 801.876 660.078 810.964 655.394 817.994 652.628 C 824.212 650.182 833.268 649.299 839.552 647.029 C 844.430 645.267 851.344 643.181 855.231 639.749 C 858.208 637.122 860.702 632.216 862.423 628.637 C 866.555 620.042 868.372 607.161 871.790 598.257 C 874.969 589.977 878.687 578.373 884.195 571.422 C 888.018 566.596 894.657 561.299 900.145 558.510 C 906.665 555.195 916.448 552.038 923.753 552.415 C 928.588 552.664 935.302 554.553 939.015 557.661 C 944.510 562.261 947.778 572.064 949.984 578.883 C 951.500 583.572 952.292 590.181 952.607 595.098 C 953.332 606.432 950.197 621.565 950.747 632.909 C 951.259 643.466 952.764 657.656 955.825 667.773 C 958.522 676.686 966.125 687.018 969.026 695.867 C 975.376 715.243 977.871 742.627 980.812 762.804 C 988.915 818.406 995.079 893.134 1001.194 948.989 C 1003.500 949.699 1006.468 951.292 1008.879 951.357 C 1011.694 951.433 1015.699 950.674 1017.964 949.002 C 1021.998 946.024 1024.190 939.028 1026.038 934.366 C 1028.510 928.131 1029.819 919.179 1031.422 912.665 C 1033.406 904.594 1036.360 893.901 1037.982 885.749 C 1038.524 883.024 1038.996 879.346 1039.470 876.608 C 1041.262 866.269 1045.062 852.684 1045.889 842.222 C 1046.295 837.080 1046.680 830.086 1045.660 825.029 C 1044.318 818.381 1038.733 810.711 1036.948 804.168 C 1035.704 799.608 1034.662 793.307 1034.656 788.580 C 1034.652 785.515 1036.349 781.495 1035.995 778.451 C 1035.022 770.072 1027.788 760.553 1024.660 752.720 C 1021.509 744.832 1018.530 733.840 1015.086 726.076 C 1012.333 719.867 1008.533 711.528 1004.494 706.067 C 1000.634 700.848 993.417 695.697 989.194 690.767 C 986.336 687.431 982.375 682.962 980.484 678.998 C 978.384 674.591 977.156 668.061 976.482 663.226 C 975.543 656.482 975.251 647.299 976.013 640.532 C 977.285 629.249 983.671 615.118 985.713 603.949 C 987.097 596.380 989.251 586.108 988.484 578.452 C 987.726 570.876 984.234 561.060 980.807 554.261 C 977.601 547.901 971.848 540.149 966.928 535.000 C 961.620 529.444 954.026 521.797 946.817 519.138 C 938.363 516.020 925.659 516.679 916.793 518.288 C 910.598 519.413 903.035 523.453 897.249 525.936 M 1001.194 948.989 C 1001.194 948.989 1001.194 948.989 1001.194 948.989 Z" clip-path="url(#cb6882c3-d270-4d5c-9b59-bfb958b57c83)"/>
<path fill="none" stroke="#000000" stroke-width="6" stroke-opacity="0.000000" stroke-linecap="round" stroke-linejoin="round" d="M 889.884 529.335 C 889.884 529.335 889.884 529.335 889.884 529.335 C 892.094 528.315 895.013 526.895 897.249 525.936 C 903.035 523.453 910.598 519.413 916.793 518.288 C 925.659 516.679 938.363 516.020 946.817 519.138 C 954.026 521.797 961.620 529.444 966.928 535.000 C 971.848 540.149 977.601 547.901 980.807 554.261 C 984.234 561.060 987.726 570.876 988.484 578.452 C 989.251 586.108 987.097 596.380 985.713 603.949 C 983.671 615.118 977.285 629.249 976.013 640.532 C 975.251 647.299 975.543 656.482 976.482 663.226 C 977.156 668.061 978.384 674.591 980.484 678.998 C 982.375 682.962 986.336 687.431 989.194 690.767 C 993.417 695.697 1000.634 700.848 1004.494 706.067 C 1008.533 711.528 1012.333 719.867 1015.086 726.076 C 1018.530 733.840 1021.509 744.832 1024.660 752.720 C 1027.788 760.553 1035.022 770.072 1035.995 778.451 C 1036.349 781.495 1034.652 785.515 1034.656 788.580 C 1034.662 793.307 1035.704 799.608 1036.948 804.168 C 1038.733 810.711 1044.318 818.381 1045.660 825.029 C 1046.680 830.086 1046.295 837.080 1045.889 842.222 C 1045.062 852.684 1041.262 866.269 1039.470 876.608 C 1038.996 879.346 1038.524 883.024 1037.982 885.749 C 1036.360 893.901 1033.406 904.594 1031.422 912.665 C 1029.819 919.179 1028.510 928.131 1026.038 934.366 C 1024.190 939.028 1021.998 946.024 1017.964 949.002 C 1015.699 950.674 1011.694 951.433 1008.879 951.357 C 1006.468 951.292 1003.500 949.699 1001.194 948.989 C 1001.194 948.989 1001.194 948.989 1001.194 948.989 C 995.079 893.134 988.915 818.406 980.812 762.804 C 977.871 742.627 975.376 715.243 969.026 695.867 C 966.125 687.018 958.522 676.686 955.825 667.773 C 952.764 657.656 951.259 643.466 950.747 632.909 C 950.197 621.565 953.332 606.432 952.607 595.098 C 952.292 590.181 951.500 583.572 949.984 578.883 C 947.778 572.064 944.510 562.261 939.015 557.661 C 935.302 554.553 928.588 552.664 923.753 552.415 C 916.448 552.038 906.665 555.195 900.145 558.510 C 894.657 561.299 888.018 566.596 884.195 571.422 C 878.687 578.373 874.969 589.977 871.790 598.257 C 868.372 607.161 866.555 620.042 862.423 628.637 C 860.702 632.216 858.208 637.122 855.231 639.749 C 851.344 643.181 844.430 645.267 839.552 647.029 C 833.268 649.299 824.212 650.182 817.994 652.628 C 810.964 655.394 801.876 660.078 795.875 664.668 C 789.693 669.396 782.484 677.097 777.956 683.427 C 773.061 690.271 768.412 700.619 765.077 708.345 C 760.368 719.255 754.232 734.083 752.129 745.779 C 750.092 757.106 749.966 772.691 751.215 784.132 C 751.787 789.368 753.591 796.206 755.096 801.254 C 757.147 808.128 762.890 816.482 763.543 823.626 C 763.852 827.002 763.962 832.088 761.945 834.812 C 760.833 836.315 758.333 837.862 756.466 837.780 C 752.768 837.617 746.806 830.106 746.805 830.105 C 746.805 830.105 746.805 830.105 746.805 830.105 C 744.674 827.691 741.274 824.869 739.704 822.058 C 731.387 807.171 726.924 766.678 726.922 766.672 C 726.922 766.672 726.922 766.672 726.922 766.672 C 729.763 756.163 733.141 742.031 736.390 731.642 C 739.455 721.843 743.444 708.665 747.864 699.398 C 752.788 689.076 760.660 675.839 767.806 666.911 C 774.544 658.494 785.302 648.779 793.539 641.822 C 806.162 631.160 825.587 620.273 838.248 609.657 C 850.906 599.044 868.158 584.735 877.705 571.256 C 882.141 564.991 887.168 555.759 889.034 548.313 C 890.419 542.785 889.884 529.337 889.884 529.335 " clip-path="url(#cb6882c3-d270-4d5c-9b59-bfb958b57c83)"/>
</g>
<path fill="none" stroke="#14a6af" stroke-width="5" stroke-linecap="round" stroke-linejoin="round" d="M 816.477 693.884 C 816.477 693.886 818.283 704.122 817.952 708.524 C 817.495 714.609 814.514 722.350 812.677 728.169 C 811.087 733.207 807.529 739.510 806.675 744.723 C 805.465 752.106 805.940 762.346 807.584 769.645 C 808.740 774.776 814.314 785.833 814.314 785.834 M 855.514 760.942 C 855.513 760.943 852.819 769.827 852.505 773.767 C 851.767 783.045 853.086 795.667 855.552 804.643 C 857.813 812.871 862.932 823.256 867.537 830.440 C 870.619 835.249 879.723 845.064 879.725 845.065 M 783.926 636.819 C 783.927 636.822 788.776 656.669 792.434 664.572 C 795.487 671.166 800.502 679.662 805.399 685.031 C 808.266 688.174 813.066 691.342 816.477 693.884 C 818.457 695.361 821.214 697.168 823.225 698.603 C 831.062 704.198 843.449 709.789 849.118 717.573 C 852.575 722.318 854.794 730.178 855.826 735.957 C 856.966 742.341 856.169 751.096 855.826 757.571 C 855.772 758.585 855.387 759.934 855.514 760.942 C 855.819 763.368 857.387 766.356 858.559 768.503 C 861.495 773.880 865.805 781.260 870.733 784.900 C 876.003 788.793 885.974 788.363 891.353 792.105 C 895.914 795.278 900.550 801.433 903.288 806.268 C 906.175 811.365 909.584 824.750 909.585 824.752 "/>
<path fill="none" stroke="#df4e47" stroke-width="5" stroke-linecap="round" stroke-linejoin="round" d="M 970.766 848.281 C 970.766 848.283 969.596 859.647 970.342 864.439 C 971.703 873.189 975.896 884.636 980.679 892.090 C 984.971 898.781 999.284 910.954 999.286 910.956 M 943.872 815.647 C 943.874 815.650 958.193 834.931 965.071 842.573 C 966.689 844.371 968.988 846.641 970.766 848.281 C 978.951 855.829 990.129 865.716 999.367 871.930 C 1003.586 874.768 1014.182 880.160 1014.183 880.161 M 909.293 735.454 C 909.293 735.455 911.924 747.150 914.061 751.785 C 916.847 757.828 922.724 764.672 926.366 770.241 C 929.877 775.612 935.382 782.349 937.909 788.247 C 940.676 794.707 942.273 804.083 943.396 811.020 C 943.619 812.398 943.784 814.255 943.872 815.647 C 944.674 828.392 944.219 858.208 944.219 858.212 M 821.907 648.861 C 821.909 648.861 830.813 651.345 834.683 652.186 C 843.246 654.046 855.095 654.514 863.490 657.027 C 870.625 659.163 880.419 662.313 886.245 666.952 C 890.949 670.698 896.075 677.363 898.349 682.929 C 900.812 688.958 899.881 698.060 901.012 704.474 C 902.345 712.038 904.374 722.124 906.791 729.414 C 907.408 731.275 908.435 733.690 909.293 735.454 C 911.641 740.283 914.867 746.781 918.256 750.946 C 924.602 758.746 935.365 767.140 943.703 772.758 C 950.145 777.099 966.632 784.782 966.634 784.783 M 787.719 632.820 C 787.721 632.820 796.643 638.985 800.792 641.050 C 806.838 644.061 815.399 647.054 821.907 648.861 C 823.178 649.214 824.900 649.608 826.210 649.765 C 834.719 650.780 846.210 650.051 854.775 649.765 C 864.451 649.442 877.292 647.393 886.971 647.586 C 893.467 647.716 902.423 647.513 908.516 649.765 C 913.032 651.433 921.829 658.721 921.831 658.722 "/>
<path fill="none" stroke="#14a6af" stroke-width="5" stroke-linecap="round" stroke-linejoin="round" d="M 1034.589 712.559 C 1034.589 712.559 1031.643 711.218 1030.589 711.832 C 1027.175 713.820 1029.053 720.971 1029.135 724.921 C 1029.235 729.780 1030.218 736.286 1031.680 740.921 C 1034.146 748.736 1039.692 758.336 1044.043 765.282 C 1048.258 772.012 1057.004 779.034 1060.042 786.371 C 1061.523 789.950 1062.080 795.227 1062.223 799.097 C 1062.352 802.601 1061.132 810.732 1061.132 810.733 M 957.390 647.627 C 957.389 647.627 947.305 648.473 943.804 650.763 C 936.155 655.766 930.357 667.709 927.122 676.258 C 923.510 685.800 923.014 699.754 922.400 709.938 C 922.281 711.917 922.400 716.547 922.400 716.548 M 972.403 617.628 C 972.402 617.630 964.217 628.517 961.745 633.766 C 959.888 637.709 958.242 643.352 957.390 647.627 C 956.779 650.693 956.615 654.883 956.394 658.002 C 955.914 664.790 955.451 680.663 955.451 680.665 M 971.087 556.640 C 971.088 556.641 976.102 563.851 979.057 566.092 C 984.047 569.875 992.371 572.142 998.258 574.275 C 1005.392 576.861 1016.117 577.402 1022.495 581.515 C 1027.497 584.740 1033.041 590.991 1035.714 596.308 C 1037.670 600.198 1038.862 610.472 1038.862 610.473 M 994.479 688.919 C 994.480 688.920 999.486 699.102 1002.955 702.378 C 1006.399 705.629 1012.286 708.498 1016.772 710.014 C 1021.888 711.742 1029.591 710.516 1034.589 712.559 C 1038.568 714.186 1043.473 717.620 1046.224 720.922 C 1049.004 724.259 1052.405 734.010 1052.405 734.012 M 951.054 501.864 C 951.055 501.865 960.153 507.949 962.755 511.734 C 966.599 517.326 968.449 526.591 969.704 533.260 C 971.005 540.165 970.927 549.615 971.087 556.640 C 971.122 558.168 971.103 560.208 971.060 561.737 C 970.885 568.050 969.949 576.440 969.874 582.756 C 969.772 591.264 969.645 602.682 970.873 611.102 C 971.164 613.092 971.845 615.696 972.403 617.628 C 973.439 621.213 975.004 625.957 976.539 629.359 C 980.489 638.113 989.341 648.021 992.592 657.058 C 994.316 661.850 995.484 668.654 995.740 673.740 C 995.970 678.304 994.972 684.376 994.479 688.919 C 994.172 691.747 993.555 695.492 993.239 698.319 C 992.203 707.561 990.128 719.910 990.536 729.201 C 990.970 739.074 993.070 752.299 996.327 761.628 C 999.846 771.707 1007.770 783.773 1013.313 792.897 C 1020.023 803.943 1037.495 828.546 1037.498 828.550 "/>
<path fill="none" stroke="#df4e47" stroke-width="5" stroke-linecap="round" stroke-linejoin="round" d="M 1067.365 661.527 C 1067.366 661.529 1067.733 674.890 1069.728 680.160 C 1073.444 689.972 1083.980 700.068 1090.298 708.444 C 1094.507 714.022 1101.904 720.374 1104.625 726.810 C 1106.578 731.433 1107.195 743.339 1107.195 743.340 M 1055.218 627.295 C 1055.217 627.296 1042.833 635.162 1038.792 639.872 C 1035.198 644.063 1030.664 650.509 1029.879 655.974 C 1029.010 662.022 1031.927 670.263 1034.479 675.814 C 1036.159 679.467 1040.536 683.099 1042.243 686.740 C 1043.796 690.055 1045.014 694.888 1045.405 698.528 C 1045.664 700.931 1045.118 706.578 1045.118 706.579 M 1075.497 621.440 C 1075.495 621.441 1061.196 625.205 1055.218 627.295 C 1052.661 628.189 1049.221 629.374 1046.843 630.671 C 1040.619 634.068 1032.774 639.643 1027.866 644.761 C 1024.090 648.698 1019.777 654.748 1017.515 659.712 C 1015.190 664.814 1012.915 677.825 1012.915 677.826 M 950.650 502.154 C 950.652 502.154 963.380 502.327 968.601 503.730 C 985.921 508.387 1007.369 520.466 1021.618 531.359 C 1033.201 540.215 1046.618 554.791 1054.847 566.828 C 1061.181 576.094 1067.736 589.791 1071.263 600.447 C 1073.282 606.546 1074.818 615.051 1075.497 621.440 C 1075.649 622.872 1075.758 624.800 1075.659 626.236 C 1075.094 634.389 1072.200 645.008 1070.091 652.904 C 1069.391 655.525 1068.153 658.931 1067.365 661.527 C 1065.755 666.835 1062.932 673.787 1062.229 679.289 C 1061.077 688.291 1061.423 700.685 1063.528 709.513 C 1066.655 722.622 1076.986 737.933 1082.703 750.137 C 1085.770 756.685 1090.894 765.036 1092.870 771.992 C 1094.599 778.080 1095.458 786.602 1095.441 792.930 C 1095.425 799.040 1092.870 813.131 1092.870 813.133 "/>
<g id="Layer_5">
<clipPath id="81690d48-424c-43f7-8fec-10cdebfed8fc">
<path fill="#2c7fa2" fill-rule="evenodd" stroke="none" d="M 729.060 745.884 C 728.615 758.612 733.368 775.287 735.214 787.888 C 735.213 787.887 727.077 782.638 724.271 779.632 C 714.194 768.834 704.727 750.945 699.278 737.219 C 694.858 726.086 691.518 710.245 690.189 698.341 C 688.513 683.331 688.922 662.983 690.834 648.002 C 692.606 634.126 696.444 615.587 701.891 602.703 C 706.251 592.391 714.226 579.460 721.509 570.958 C 728.371 562.946 739.647 554.246 748.184 548.050 C 758.210 540.774 772.164 531.629 783.530 526.702 C 792.951 522.618 806.557 520.088 816.426 517.253 C 825.864 515.900 838.361 513.159 847.887 512.742 C 855.062 512.429 864.674 513.001 871.795 513.930 C 873.415 514.142 875.846 513.973 877.141 514.970 C 883.241 519.668 884.503 531.834 884.579 539.533 C 884.637 545.462 882.410 553.466 879.504 558.635 C 859.965 593.389 806.697 616.944 779.167 645.783 C 766.715 658.827 749.146 676.224 741.282 692.452 C 734.111 707.250 729.634 729.450 729.060 745.884 M 816.426 517.253 C 816.426 517.253 816.426 517.253 816.426 517.253 Z"/>
</clipPath>
<path fill="#2c7fa2" fill-rule="evenodd" stroke="none" d="M 729.060 745.884 C 728.615 758.612 733.368 775.287 735.214 787.888 C 735.213 787.887 727.077 782.638 724.271 779.632 C 714.194 768.834 704.727 750.945 699.278 737.219 C 694.858 726.086 691.518 710.245 690.189 698.341 C 688.513 683.331 688.922 662.983 690.834 648.002 C 692.606 634.126 696.444 615.587 701.891 602.703 C 706.251 592.391 714.226 579.460 721.509 570.958 C 728.371 562.946 739.647 554.246 748.184 548.050 C 758.210 540.774 772.164 531.629 783.530 526.702 C 792.951 522.618 806.557 520.088 816.426 517.253 C 825.864 515.900 838.361 513.159 847.887 512.742 C 855.062 512.429 864.674 513.001 871.795 513.930 C 873.415 514.142 875.846 513.973 877.141 514.970 C 883.241 519.668 884.503 531.834 884.579 539.533 C 884.637 545.462 882.410 553.466 879.504 558.635 C 859.965 593.389 806.697 616.944 779.167 645.783 C 766.715 658.827 749.146 676.224 741.282 692.452 C 734.111 707.250 729.634 729.450 729.060 745.884 M 816.426 517.253 C 816.426 517.253 816.426 517.253 816.426 517.253 Z"/>
<path fill="none" stroke="#000000" stroke-width="6" stroke-opacity="0.000000" stroke-linecap="round" stroke-linejoin="round" d="M 735.214 787.888 C 735.214 787.888 735.214 787.888 735.214 787.888 C 733.368 775.287 728.615 758.612 729.060 745.884 C 729.634 729.450 734.111 707.250 741.282 692.452 C 749.146 676.224 766.715 658.827 779.167 645.783 C 806.697 616.944 859.965 593.389 879.504 558.635 C 882.410 553.466 884.637 545.462 884.579 539.533 C 884.503 531.834 883.241 519.668 877.141 514.970 C 875.846 513.973 873.415 514.142 871.795 513.930 C 864.674 513.001 855.062 512.429 847.887 512.742 C 838.361 513.159 825.864 515.900 816.426 517.253 C 816.426 517.253 816.426 517.253 816.426 517.253 C 806.557 520.088 792.951 522.618 783.530 526.702 C 772.164 531.629 758.210 540.774 748.184 548.050 C 739.647 554.246 728.371 562.946 721.509 570.958 C 714.226 579.460 706.251 592.391 701.891 602.703 C 696.444 615.587 692.606 634.126 690.834 648.002 C 688.922 662.983 688.513 683.331 690.189 698.341 C 691.518 710.245 694.858 726.086 699.278 737.219 C 704.727 750.945 714.194 768.834 724.271 779.632 C 727.077 782.638 735.213 787.887 735.214 787.888 "/>
<path fill="#42abd7" fill-rule="evenodd" stroke="none" d="M 703.282 730.972 C 699.938 729.793 696.302 726.529 693.310 724.625 C 693.310 724.621 687.825 693.825 686.360 680.506 C 685.475 672.468 683.856 661.668 684.547 653.611 C 686.144 634.986 692.881 610.378 700.865 593.476 C 705.361 583.957 713.356 572.086 720.644 564.489 C 732.005 552.648 750.761 540.635 765.007 532.490 C 774.968 526.795 788.890 520.036 799.915 516.854 C 814.086 512.765 834.023 512.272 848.641 510.309 C 850.201 512.369 852.575 514.924 853.841 517.177 C 855.428 519.999 857.465 524.013 857.742 527.238 C 858.385 534.711 854.933 544.758 851.583 551.467 C 844.538 565.574 828.266 579.979 817.293 591.302 C 805.973 602.981 788.572 616.183 777.319 627.925 C 764.227 641.585 747.088 660.381 736.825 676.276 C 732.691 682.679 727.974 691.786 725.342 698.939 C 722.957 705.419 722.539 714.920 719.902 721.301 C 718.459 724.793 716.959 730.537 713.556 732.180 C 710.762 733.530 706.209 732.003 703.282 730.972 M 848.641 510.309 C 848.641 510.309 848.641 510.309 848.641 510.309 Z" clip-path="url(#81690d48-424c-43f7-8fec-10cdebfed8fc)"/>
<path fill="none" stroke="#000000" stroke-width="6" stroke-opacity="0.000000" stroke-linecap="round" stroke-linejoin="round" d="M 693.310 724.625 C 693.310 724.625 693.310 724.625 693.310 724.625 C 696.302 726.529 699.938 729.793 703.282 730.972 C 706.209 732.003 710.762 733.530 713.556 732.180 C 716.959 730.537 718.459 724.793 719.902 721.301 C 722.539 714.920 722.957 705.419 725.342 698.939 C 727.974 691.786 732.691 682.679 736.825 676.276 C 747.088 660.381 764.227 641.585 777.319 627.925 C 788.572 616.183 805.973 602.981 817.293 591.302 C 828.266 579.979 844.538 565.574 851.583 551.467 C 854.933 544.758 858.385 534.711 857.742 527.238 C 857.465 524.013 855.428 519.999 853.841 517.177 C 852.575 514.924 850.201 512.369 848.641 510.309 C 848.641 510.309 848.641 510.309 848.641 510.309 C 834.023 512.272 814.086 512.765 799.915 516.854 C 788.890 520.036 774.968 526.795 765.007 532.490 C 750.761 540.635 732.005 552.648 720.644 564.489 C 713.356 572.086 705.361 583.957 700.865 593.476 C 692.881 610.378 686.144 634.986 684.547 653.611 C 683.856 661.668 685.475 672.468 686.360 680.506 C 687.825 693.825 693.310 724.621 693.310 724.625 " clip-path="url(#81690d48-424c-43f7-8fec-10cdebfed8fc)"/>
</g>
</g>
</g>
</svg>
